<mxfile host="Electron" modified="2024-04-21T14:48:57.350Z" agent="Mozilla/5.0 (Windows NT 10.0; Win64; x64) AppleWebKit/537.36 (KHTML, like Gecko) draw.io/23.1.5 Chrome/120.0.6099.109 Electron/28.1.0 Safari/537.36" etag="7PvHdu0uY_lh13w7QFhI" version="23.1.5" type="device">
  <diagram name="Страница — 1" id="JLULOAlkJ3aI0VZnD2LQ">
    <mxGraphModel dx="858" dy="556" grid="1" gridSize="10" guides="1" tooltips="1" connect="1" arrows="1" fold="1" page="1" pageScale="1" pageWidth="827" pageHeight="1169" math="0" shadow="0">
      <root>
        <mxCell id="0" />
        <mxCell id="1" parent="0" />
        <mxCell id="40trwWTxhHVr-3ZkfSOH-2" style="edgeStyle=orthogonalEdgeStyle;rounded=0;orthogonalLoop=1;jettySize=auto;html=1;exitX=0.5;exitY=1;exitDx=0;exitDy=0;entryX=0.5;entryY=0;entryDx=0;entryDy=0;" edge="1" parent="1" source="gBKuoCQjEU2EA3JGXyk2-1" target="40trwWTxhHVr-3ZkfSOH-1">
          <mxGeometry relative="1" as="geometry" />
        </mxCell>
        <mxCell id="gBKuoCQjEU2EA3JGXyk2-1" value="Начало" style="rounded=1;whiteSpace=wrap;html=1;arcSize=35;" parent="1" vertex="1">
          <mxGeometry x="213.75" y="280" width="90" height="50" as="geometry" />
        </mxCell>
        <mxCell id="40trwWTxhHVr-3ZkfSOH-6" style="edgeStyle=orthogonalEdgeStyle;rounded=0;orthogonalLoop=1;jettySize=auto;html=1;exitX=0.5;exitY=1;exitDx=0;exitDy=0;entryX=0.5;entryY=0;entryDx=0;entryDy=0;" edge="1" parent="1" source="FaUPefRK3cK26D1pfbpW-3" target="40trwWTxhHVr-3ZkfSOH-5">
          <mxGeometry relative="1" as="geometry" />
        </mxCell>
        <mxCell id="FaUPefRK3cK26D1pfbpW-3" value="Пока i&amp;lt;words_array.length, i + 1" style="shape=trapezoid;perimeter=trapezoidPerimeter;whiteSpace=wrap;html=1;fixedSize=1;" parent="1" vertex="1">
          <mxGeometry x="152.51" y="525" width="212.49" height="60" as="geometry" />
        </mxCell>
        <mxCell id="40trwWTxhHVr-3ZkfSOH-25" style="edgeStyle=orthogonalEdgeStyle;rounded=0;orthogonalLoop=1;jettySize=auto;html=1;exitX=0.5;exitY=1;exitDx=0;exitDy=0;entryX=0.5;entryY=0;entryDx=0;entryDy=0;" edge="1" parent="1" source="FaUPefRK3cK26D1pfbpW-11" target="40trwWTxhHVr-3ZkfSOH-19">
          <mxGeometry relative="1" as="geometry" />
        </mxCell>
        <mxCell id="FaUPefRK3cK26D1pfbpW-11" value="Конец цикла" style="verticalLabelPosition=middle;verticalAlign=middle;html=1;shape=trapezoid;perimeter=trapezoidPerimeter;whiteSpace=wrap;size=0.23;arcSize=10;flipV=1;labelPosition=center;align=center;" parent="1" vertex="1">
          <mxGeometry x="341.87" y="870" width="117.5" height="40" as="geometry" />
        </mxCell>
        <mxCell id="40trwWTxhHVr-3ZkfSOH-4" style="edgeStyle=orthogonalEdgeStyle;rounded=0;orthogonalLoop=1;jettySize=auto;html=1;exitX=0.5;exitY=1;exitDx=0;exitDy=0;entryX=0.5;entryY=0;entryDx=0;entryDy=0;" edge="1" parent="1" source="es42nNVJPpmJwmXZ8PlR-2" target="FaUPefRK3cK26D1pfbpW-3">
          <mxGeometry relative="1" as="geometry" />
        </mxCell>
        <mxCell id="es42nNVJPpmJwmXZ8PlR-2" value="words_array = inputString.split(&#39; &#39;)&lt;br&gt;count = 0" style="rounded=0;whiteSpace=wrap;html=1;" parent="1" vertex="1">
          <mxGeometry x="198.75" y="420" width="120" height="70" as="geometry" />
        </mxCell>
        <mxCell id="es42nNVJPpmJwmXZ8PlR-68" value="Конец" style="rounded=1;whiteSpace=wrap;html=1;arcSize=37;" parent="1" vertex="1">
          <mxGeometry x="115" y="980" width="70" height="40" as="geometry" />
        </mxCell>
        <mxCell id="40trwWTxhHVr-3ZkfSOH-3" style="edgeStyle=orthogonalEdgeStyle;rounded=0;orthogonalLoop=1;jettySize=auto;html=1;exitX=0.5;exitY=1;exitDx=0;exitDy=0;entryX=0.5;entryY=0;entryDx=0;entryDy=0;" edge="1" parent="1" source="40trwWTxhHVr-3ZkfSOH-1" target="es42nNVJPpmJwmXZ8PlR-2">
          <mxGeometry relative="1" as="geometry" />
        </mxCell>
        <mxCell id="40trwWTxhHVr-3ZkfSOH-1" value="Получение &lt;br&gt;inputString" style="shape=hexagon;perimeter=hexagonPerimeter2;whiteSpace=wrap;html=1;fixedSize=1;" vertex="1" parent="1">
          <mxGeometry x="203.13" y="350" width="111.25" height="50" as="geometry" />
        </mxCell>
        <mxCell id="40trwWTxhHVr-3ZkfSOH-8" style="edgeStyle=orthogonalEdgeStyle;rounded=0;orthogonalLoop=1;jettySize=auto;html=1;exitX=0.5;exitY=1;exitDx=0;exitDy=0;entryX=0.5;entryY=0;entryDx=0;entryDy=0;" edge="1" parent="1" source="40trwWTxhHVr-3ZkfSOH-5" target="40trwWTxhHVr-3ZkfSOH-7">
          <mxGeometry relative="1" as="geometry" />
        </mxCell>
        <mxCell id="40trwWTxhHVr-3ZkfSOH-5" value="current_word = words_array[i]&lt;br&gt;a_count = 0" style="rounded=0;whiteSpace=wrap;html=1;" vertex="1" parent="1">
          <mxGeometry x="198.76" y="600" width="120" height="60" as="geometry" />
        </mxCell>
        <mxCell id="40trwWTxhHVr-3ZkfSOH-10" style="edgeStyle=orthogonalEdgeStyle;rounded=0;orthogonalLoop=1;jettySize=auto;html=1;exitX=0.5;exitY=1;exitDx=0;exitDy=0;entryX=0.5;entryY=0;entryDx=0;entryDy=0;" edge="1" parent="1" source="40trwWTxhHVr-3ZkfSOH-7" target="40trwWTxhHVr-3ZkfSOH-9">
          <mxGeometry relative="1" as="geometry" />
        </mxCell>
        <mxCell id="40trwWTxhHVr-3ZkfSOH-7" value="Пока j&amp;lt;current_word.length, j + 1" style="shape=trapezoid;perimeter=trapezoidPerimeter;whiteSpace=wrap;html=1;fixedSize=1;" vertex="1" parent="1">
          <mxGeometry x="152.51" y="690" width="212.49" height="60" as="geometry" />
        </mxCell>
        <mxCell id="40trwWTxhHVr-3ZkfSOH-15" style="edgeStyle=orthogonalEdgeStyle;rounded=0;orthogonalLoop=1;jettySize=auto;html=1;exitX=1;exitY=0.5;exitDx=0;exitDy=0;entryX=0;entryY=0.5;entryDx=0;entryDy=0;" edge="1" parent="1" source="40trwWTxhHVr-3ZkfSOH-9" target="40trwWTxhHVr-3ZkfSOH-14">
          <mxGeometry relative="1" as="geometry" />
        </mxCell>
        <mxCell id="40trwWTxhHVr-3ZkfSOH-17" style="edgeStyle=orthogonalEdgeStyle;rounded=0;orthogonalLoop=1;jettySize=auto;html=1;exitX=0;exitY=0.5;exitDx=0;exitDy=0;entryX=0;entryY=0.5;entryDx=0;entryDy=0;" edge="1" parent="1" source="40trwWTxhHVr-3ZkfSOH-9" target="FaUPefRK3cK26D1pfbpW-11">
          <mxGeometry relative="1" as="geometry">
            <Array as="points">
              <mxPoint x="159" y="810" />
              <mxPoint x="159" y="890" />
            </Array>
          </mxGeometry>
        </mxCell>
        <mxCell id="40trwWTxhHVr-3ZkfSOH-9" value="current_word[j] === &#39;А&#39;" style="rhombus;whiteSpace=wrap;html=1;" vertex="1" parent="1">
          <mxGeometry x="178.91" y="770" width="159.69" height="80" as="geometry" />
        </mxCell>
        <mxCell id="40trwWTxhHVr-3ZkfSOH-12" value="True" style="text;html=1;align=center;verticalAlign=middle;whiteSpace=wrap;rounded=0;" vertex="1" parent="1">
          <mxGeometry x="303.75" y="770" width="60" height="30" as="geometry" />
        </mxCell>
        <mxCell id="40trwWTxhHVr-3ZkfSOH-13" value="False" style="text;html=1;align=center;verticalAlign=middle;whiteSpace=wrap;rounded=0;" vertex="1" parent="1">
          <mxGeometry x="160" y="770" width="60" height="30" as="geometry" />
        </mxCell>
        <mxCell id="40trwWTxhHVr-3ZkfSOH-16" style="edgeStyle=orthogonalEdgeStyle;rounded=0;orthogonalLoop=1;jettySize=auto;html=1;exitX=0.5;exitY=1;exitDx=0;exitDy=0;entryX=0.5;entryY=0;entryDx=0;entryDy=0;" edge="1" parent="1" source="40trwWTxhHVr-3ZkfSOH-14" target="FaUPefRK3cK26D1pfbpW-11">
          <mxGeometry relative="1" as="geometry" />
        </mxCell>
        <mxCell id="40trwWTxhHVr-3ZkfSOH-14" value="a_count ++" style="rounded=0;whiteSpace=wrap;html=1;" vertex="1" parent="1">
          <mxGeometry x="365" y="790" width="71.24" height="40" as="geometry" />
        </mxCell>
        <mxCell id="40trwWTxhHVr-3ZkfSOH-23" style="edgeStyle=orthogonalEdgeStyle;rounded=0;orthogonalLoop=1;jettySize=auto;html=1;exitX=0;exitY=0.5;exitDx=0;exitDy=0;entryX=1;entryY=0.5;entryDx=0;entryDy=0;" edge="1" parent="1" source="40trwWTxhHVr-3ZkfSOH-19" target="40trwWTxhHVr-3ZkfSOH-22">
          <mxGeometry relative="1" as="geometry" />
        </mxCell>
        <mxCell id="40trwWTxhHVr-3ZkfSOH-27" style="edgeStyle=orthogonalEdgeStyle;rounded=0;orthogonalLoop=1;jettySize=auto;html=1;exitX=1;exitY=0.5;exitDx=0;exitDy=0;entryX=1;entryY=0.5;entryDx=0;entryDy=0;" edge="1" parent="1" source="40trwWTxhHVr-3ZkfSOH-19" target="40trwWTxhHVr-3ZkfSOH-24">
          <mxGeometry relative="1" as="geometry">
            <Array as="points">
              <mxPoint x="499" y="980" />
              <mxPoint x="499" y="1060" />
            </Array>
          </mxGeometry>
        </mxCell>
        <mxCell id="40trwWTxhHVr-3ZkfSOH-19" value="current_word[j] === &#39;А&#39;" style="rhombus;whiteSpace=wrap;html=1;" vertex="1" parent="1">
          <mxGeometry x="318.74999999999994" y="940" width="159.69" height="80" as="geometry" />
        </mxCell>
        <mxCell id="40trwWTxhHVr-3ZkfSOH-20" value="True" style="text;html=1;align=center;verticalAlign=middle;whiteSpace=wrap;rounded=0;" vertex="1" parent="1">
          <mxGeometry x="303.75" y="940" width="60" height="30" as="geometry" />
        </mxCell>
        <mxCell id="40trwWTxhHVr-3ZkfSOH-21" value="False" style="text;html=1;align=center;verticalAlign=middle;whiteSpace=wrap;rounded=0;" vertex="1" parent="1">
          <mxGeometry x="436.24" y="940" width="60" height="30" as="geometry" />
        </mxCell>
        <mxCell id="40trwWTxhHVr-3ZkfSOH-26" style="edgeStyle=orthogonalEdgeStyle;rounded=0;orthogonalLoop=1;jettySize=auto;html=1;exitX=0.5;exitY=1;exitDx=0;exitDy=0;entryX=0.5;entryY=0;entryDx=0;entryDy=0;" edge="1" parent="1" source="40trwWTxhHVr-3ZkfSOH-22" target="40trwWTxhHVr-3ZkfSOH-24">
          <mxGeometry relative="1" as="geometry" />
        </mxCell>
        <mxCell id="40trwWTxhHVr-3ZkfSOH-22" value="count ++" style="rounded=0;whiteSpace=wrap;html=1;" vertex="1" parent="1">
          <mxGeometry x="232.51" y="960" width="71.24" height="40" as="geometry" />
        </mxCell>
        <mxCell id="40trwWTxhHVr-3ZkfSOH-29" style="edgeStyle=orthogonalEdgeStyle;rounded=0;orthogonalLoop=1;jettySize=auto;html=1;exitX=0.5;exitY=1;exitDx=0;exitDy=0;entryX=0.5;entryY=1;entryDx=0;entryDy=0;" edge="1" parent="1" source="40trwWTxhHVr-3ZkfSOH-24" target="40trwWTxhHVr-3ZkfSOH-28">
          <mxGeometry relative="1" as="geometry" />
        </mxCell>
        <mxCell id="40trwWTxhHVr-3ZkfSOH-24" value="Конец цикла" style="verticalLabelPosition=middle;verticalAlign=middle;html=1;shape=trapezoid;perimeter=trapezoidPerimeter;whiteSpace=wrap;size=0.23;arcSize=10;flipV=1;labelPosition=center;align=center;" vertex="1" parent="1">
          <mxGeometry x="209.38" y="1040" width="117.5" height="40" as="geometry" />
        </mxCell>
        <mxCell id="40trwWTxhHVr-3ZkfSOH-30" style="edgeStyle=orthogonalEdgeStyle;rounded=0;orthogonalLoop=1;jettySize=auto;html=1;exitX=0.5;exitY=0;exitDx=0;exitDy=0;entryX=0.5;entryY=1;entryDx=0;entryDy=0;" edge="1" parent="1" source="40trwWTxhHVr-3ZkfSOH-28" target="es42nNVJPpmJwmXZ8PlR-68">
          <mxGeometry relative="1" as="geometry" />
        </mxCell>
        <mxCell id="40trwWTxhHVr-3ZkfSOH-28" value="Вывод count" style="rounded=0;whiteSpace=wrap;html=1;" vertex="1" parent="1">
          <mxGeometry x="110" y="1050" width="80" height="30" as="geometry" />
        </mxCell>
      </root>
    </mxGraphModel>
  </diagram>
</mxfile>
